<?xml version="1.0" encoding="utf-8"?>
<!-- Generator: Adobe Illustrator 19.0.1, SVG Export Plug-In . SVG Version: 6.00 Build 0)  -->
<svg version="1.1" id="Слой_1" xmlns="http://www.w3.org/2000/svg" xmlns:xlink="http://www.w3.org/1999/xlink" x="0px" y="0px"
	 viewBox="0 0 54.6 45.9" style="enable-background:new 0 0 54.6 45.9;" xml:space="preserve">
<g>
	<path d="M54.5,22.5c-3.3-5.7-6.7-11.5-10-17.3c-0.9-1.6-1.8-3.2-2.8-4.8C41.6,0.2,41.4,0,41.1,0c-0.6,0-1.1,0-1.7,0
		C35,0,30.6,0,26.2,0c-3.6,0-7.1,0-10.7,0.1c-0.1,0-0.2,0-0.4,0c-0.1,0-0.2,0.1-0.3,0.2c-0.4,0.6-0.4,0.6,0,1.2c4,7,8,14,12.1,20.9
		c0.4,0.7,0.4,0.5,0,1.2c-1.9,3.3-3.8,6.5-5.7,9.8c-2.1,3.7-4.3,7.4-6.4,11.1c-0.4,0.6-0.4,0.6,0.1,1.2c0.1,0.1,0.2,0.2,0.3,0.2
		c0.1,0,0.3,0,0.4,0c4.2,0,8.4,0,12.6,0c4.3,0,8.5,0,12.8,0c0.4,0,0.5-0.1,0.7-0.4c1-1.7,1.9-3.3,2.9-5c3.3-5.7,6.6-11.5,9.9-17.2
		C54.7,23,54.7,22.8,54.5,22.5 M21,5.3c-0.1-0.1-0.2-0.3-0.2-0.4l0.1-0.1h0.4c6.3,0,12.7,0,19,0c0.3,0,0.5,0.1,0.7,0.4
		c2.5,4.3,4.9,8.6,7.4,12.8c0.1,0.1,0.1,0.2,0.2,0.4c-0.1,0-0.2,0.1-0.3,0.1c-0.1,0-0.2,0-0.4,0c-6.2,0-12.5,0-18.7,0
		c-0.7,0-0.6,0-0.9-0.5C25.8,13.7,23.4,9.5,21,5.3 M40.4,44.2c-0.2,0-1.8,0-2,0l-20.1,0c-0.3,0-0.5,0-0.8,0c-0.3,0-0.4-0.1-0.2-0.5
		c0.5-0.8,1-1.7,1.5-2.5c1.5-2.7,3.1-5.3,4.6-8l1.7-2.9c0.9-1.6,1.8-3.1,2.7-4.7c0.3-0.4,0.5-0.9,0.8-1.3c0.1-0.3,0.3-0.3,0.6-0.3
		c3.1,0,6.3,0,9.4-0.1c4.2,0,8.5,0,12.7,0c0.2,0,0.3,0,0.5,0c0.3,0,0.3,0.2,0.2,0.4c0,0.1-0.1,0.1-0.1,0.2
		c-3.4,5.9-6.8,11.8-10.2,17.7c-0.1,0.2-0.2,0.3-0.3,0.5c-0.1,0.1-0.6,1.1-0.8,1.3L40.4,44.2z"/>
	<path d="M21.7,23.9c-6.6,0-9.7,0-16.3,0c-0.2,0-0.5,0-0.7,0c-0.2,0-0.3,0.1-0.2,0.3c0,0.1,0.1,0.2,0.2,0.3
		c3.1,5.4,6.2,10.8,9.4,16.2c0.4,0.7,0.4,0.7,0,1.4c-0.1,0.2-0.3,0.5-0.5,0.7c0,0-0.1,0.1-0.2,0.1c-0.1-0.1-0.2-0.2-0.3-0.3
		c-3.7-6.3-7.3-12.7-11-19c-0.5-0.8-0.5-0.6,0-1.4C5.8,15.9,9.5,9.6,13.1,3.3c0.1-0.1,0.2-0.3,0.3-0.4C13.5,3,13.6,3,13.6,3.1
		c0.2,0.4,0.5,0.8,0.7,1.2c0.1,0.2,0,0.3-0.1,0.5c-0.6,1-1.1,2-1.7,3c-2.6,4.5-5.2,9.1-7.8,13.6c-0.1,0.2-0.3,0.4-0.2,0.7
		c0.2,0,0.4,0.1,0.6,0.1c6.5,0,10,0,16.5,0L21.7,23.9z"/>
	<path d="M39.3,6c-1.3,2.4-2.5,4.7-3.8,7.1c-4-2.4-8-4.8-12-7.1c0,0,0-0.1,0-0.1c0,0,0,0,0,0c5.2,0,10.3,0,15.5,0
		C39.1,5.9,39.2,5.9,39.3,6C39.2,5.9,39.3,5.9,39.3,6"/>
	<path d="M36.3,14.6c0.4-0.8,0.8-1.5,1.2-2.2c0.3,0.1,8,4.6,8.3,4.9H29.9c0.4-0.9,0.9-1.7,1.3-2.5c0.4-0.8,0.9-1.6,1.3-2.5
		C33.8,13.1,35,13.8,36.3,14.6"/>
	<path d="M46.4,16.6c-2.8-1.7-5.6-3.3-8.4-5c0.9-1.7,1.8-3.3,2.6-5C40.8,6.8,46.1,16,46.4,16.6"/>
	<path d="M22.9,6.6c2.8,1.7,5.6,3.3,8.4,5c-0.9,1.7-1.8,3.3-2.6,5C28.4,16.4,23.1,7.1,22.9,6.6"/>
</g>
</svg>
