<?xml version="1.0" encoding="utf-8"?>
<!-- Generator: Adobe Illustrator 19.0.1, SVG Export Plug-In . SVG Version: 6.00 Build 0)  -->
<svg version="1.1" id="Слой_1" xmlns="http://www.w3.org/2000/svg" xmlns:xlink="http://www.w3.org/1999/xlink" x="0px" y="0px"
	 viewBox="0 0 205 46.5" style="enable-background:new 0 0 205 46.5;" xml:space="preserve">
<style type="text/css">
	.st0{fill:#FFFFFF;}
</style>
<g>
	<path class="st0" d="M61.6,33.3V13.8h7.7c6.1,0,10.3,3.9,10.3,9.7c0,5.9-4.2,9.7-10.3,9.7H61.6z M75.3,23.6c0-3.4-2.1-6.1-6.1-6.1
		h-3.5v12.2h3.5C73.1,29.6,75.3,26.8,75.3,23.6 M94.9,33.3L93.7,30h-8.3l-1.2,3.3h-4.7L87,13.8h5.2l7.5,19.4H94.9z M89.6,18l-3,8.4
		h6.1L89.6,18z M104.1,33.3V17.5h-5.7v-3.6h15.5v3.6h-5.7v15.8H104.1z M128.1,33.3l-1.2-3.3h-8.3l-1.2,3.3h-4.7l7.5-19.4h5.2
		l7.5,19.4H128.1z M122.7,18l-3,8.4h6.1L122.7,18z"/>
	<path class="st0" d="M134.4,23.6c0-6,4.3-10.1,9.9-10.1c3.1,0,5.4,1.4,7.1,3.4l-1.4,0.9c-1.2-1.7-3.4-2.8-5.7-2.8
		c-4.6,0-8.1,3.5-8.1,8.5c0,5,3.5,8.5,8.1,8.5c2.3,0,4.5-1.1,5.7-2.8l1.4,0.9c-1.7,2.1-4,3.5-7.1,3.5
		C138.8,33.6,134.4,29.5,134.4,23.6"/>
	<path class="st0" d="M154.7,25.8v-12h1.7v12c0,3.9,2.1,6.3,5.9,6.3c3.8,0,5.9-2.4,5.9-6.3v-12h1.7v12c0,4.8-2.6,7.8-7.6,7.8
		C157.3,33.6,154.7,30.6,154.7,25.8"/>
	<path class="st0" d="M174.7,33.3V13.8h8c3.3,0,5.4,1.9,5.4,5c0,2.4-1.7,4.1-3.4,4.5c2.1,0.3,3.8,2.5,3.8,4.8c0,3.2-2.1,5.2-5.6,5.2
		H174.7z M186.3,18.9c0-2-1.3-3.6-3.8-3.6h-6.1v7.2h6.1C185,22.5,186.3,21,186.3,18.9 M186.7,27.9c0-2-1.4-3.8-4.1-3.8h-6.2v7.7h6.2
		C185.2,31.7,186.7,30.3,186.7,27.9"/>
	<polygon class="st0" points="192.6,33.3 192.6,13.8 205,13.8 205,15.3 194.3,15.3 194.3,22.5 204.7,22.5 204.7,24 194.3,24 
		194.3,31.7 205,31.7 205,33.3 	"/>
	<path class="st0" d="M52.7,23.1c-3.3-5.7-6.7-11.5-10-17.3c-0.9-1.6-1.8-3.2-2.8-4.8c-0.2-0.3-0.4-0.4-0.7-0.4c-0.6,0-1.1,0-1.7,0
		c-4.4,0-8.8,0-13.2,0c-3.6,0-7.1,0-10.7,0.1c-0.1,0-0.2,0-0.4,0c-0.1,0-0.2,0.1-0.3,0.2c-0.4,0.6-0.4,0.6,0,1.2c4,7,8,14,12.1,20.9
		c0.4,0.7,0.4,0.5,0,1.2c-1.9,3.3-3.8,6.5-5.7,9.8c-2.1,3.7-4.3,7.4-6.4,11.1c-0.4,0.6-0.4,0.6,0.1,1.2c0.1,0.1,0.2,0.2,0.3,0.2
		c0.1,0,0.3,0,0.4,0c4.2,0,8.4,0,12.6,0c4.3,0,8.5,0,12.8,0c0.4,0,0.5-0.1,0.7-0.4c1-1.7,1.9-3.3,2.9-5c3.3-5.7,6.6-11.5,9.9-17.2
		C52.9,23.6,52.9,23.4,52.7,23.1 M19.2,5.9c-0.1-0.1-0.2-0.3-0.2-0.4L19,5.4h0.4c6.3,0,12.7,0,19,0c0.3,0,0.5,0.1,0.7,0.4
		c2.5,4.3,4.9,8.6,7.4,12.8c0.1,0.1,0.1,0.2,0.2,0.4c-0.1,0-0.2,0.1-0.3,0.1c-0.1,0-0.2,0-0.4,0c-6.2,0-12.5,0-18.7,0
		c-0.7,0-0.6,0-0.9-0.5C24,14.3,21.6,10.1,19.2,5.9 M38.5,44.8c-0.2,0-1.8,0-2,0l-20.1,0c-0.3,0-0.5,0-0.8,0c-0.3,0-0.4-0.1-0.2-0.5
		c0.5-0.8,1-1.7,1.5-2.5c1.5-2.7,3.1-5.3,4.6-8l1.7-2.9c0.9-1.6,1.8-3.1,2.7-4.7c0.3-0.4,0.5-0.9,0.8-1.3c0.1-0.3,0.3-0.3,0.6-0.3
		c3.1,0,6.3,0,9.4-0.1c4.2,0,8.5,0,12.7,0c0.2,0,0.3,0,0.5,0c0.3,0,0.3,0.2,0.2,0.4c0,0.1-0.1,0.1-0.1,0.2
		c-3.4,5.9-6.8,11.8-10.2,17.7c-0.1,0.2-0.2,0.3-0.3,0.5c-0.1,0.1-0.6,1.1-0.8,1.3L38.5,44.8z"/>
	<path class="st0" d="M19.9,24.5c-6.6,0-9.7,0-16.3,0c-0.2,0-0.5,0-0.7,0c-0.2,0-0.3,0.1-0.2,0.3c0,0.1,0.1,0.2,0.2,0.3
		c3.1,5.4,6.2,10.8,9.4,16.2c0.4,0.7,0.4,0.7,0,1.4c-0.1,0.2-0.3,0.5-0.5,0.7c0,0-0.1,0.1-0.2,0.1c-0.1-0.1-0.2-0.2-0.3-0.3
		C7.7,37,4,30.6,0.4,24.3c-0.5-0.8-0.5-0.6,0-1.4C4,16.5,7.6,10.2,11.3,3.9c0.1-0.1,0.2-0.3,0.3-0.4c0.1,0.1,0.2,0.1,0.2,0.2
		c0.2,0.4,0.5,0.8,0.7,1.2c0.1,0.2,0,0.3-0.1,0.5c-0.6,1-1.1,2-1.7,3c-2.6,4.5-5.2,9.1-7.8,13.6c-0.1,0.2-0.3,0.4-0.2,0.7
		c0.2,0,0.4,0.1,0.6,0.1c6.5,0,10,0,16.5,0L19.9,24.5z"/>
	<path class="st0" d="M37.5,6.6c-1.3,2.4-2.5,4.7-3.8,7.1c-4-2.4-8-4.8-12-7.1c0,0,0-0.1,0-0.1c0,0,0,0,0,0c5.2,0,10.3,0,15.5,0
		C37.3,6.5,37.3,6.5,37.5,6.6C37.4,6.5,37.4,6.5,37.5,6.6"/>
	<path class="st0" d="M34.5,15.2c0.4-0.8,0.8-1.5,1.2-2.2c0.3,0.1,8,4.6,8.3,4.9H28.1c0.4-0.9,0.9-1.7,1.3-2.5
		c0.4-0.8,0.9-1.6,1.3-2.5C32,13.7,33.2,14.4,34.5,15.2"/>
	<path class="st0" d="M44.5,17.2c-2.8-1.7-5.6-3.3-8.4-5c0.9-1.7,1.8-3.3,2.6-5C39,7.4,44.3,16.6,44.5,17.2"/>
	<path class="st0" d="M21.1,7.2c2.8,1.7,5.6,3.3,8.4,5c-0.9,1.7-1.8,3.3-2.6,5C26.6,17,21.2,7.7,21.1,7.2"/>
</g>
</svg>
