<?xml version="1.0" encoding="utf-8"?>
<!-- Generator: Adobe Illustrator 19.0.1, SVG Export Plug-In . SVG Version: 6.00 Build 0)  -->
<svg version="1.1" id="Capa_1" xmlns="http://www.w3.org/2000/svg" xmlns:xlink="http://www.w3.org/1999/xlink" x="0px" y="0px"
	 viewBox="-57 180.9 480 480" style="enable-background:new -57 180.9 480 480;" xml:space="preserve">
<style type="text/css">
	.st0{fill:#273696;}
</style>
<g>
	<g>
		<path class="st0" d="M422.6,282.3c0-0.1-0.1-0.2-0.1-0.3c-0.1-0.3-0.3-0.5-0.4-0.8c-0.3-0.6-0.7-1.1-1.1-1.6
			c-0.2-0.2-0.4-0.5-0.7-0.7c-0.5-0.4-1-0.8-1.6-1.1c-0.3-0.1-0.5-0.3-0.8-0.4c-0.9-0.4-1.9-0.6-2.8-0.6h-24v-40c0-4.4-3.6-8-8-8
			H-49c-4.4,0-8,3.6-8,8v320c0,4.4,3.6,8,8,8H96.1l-23.7,35.6c-2.5,3.7-1.5,8.6,2.2,11.1c1.3,0.9,2.9,1.3,4.4,1.3h160
			c4.4,0,8-3.6,8-8c0-1.6-0.5-3.1-1.3-4.4l-23.7-35.6H383c4.4,0,8-3.6,8-8v-88h24c4.4,0,8-3.6,8-8v-176v-0.1
			C423,283.9,422.8,283.1,422.6,282.3z M392,292.9L263,394.7L134,292.9H392z M224,596.9H94l21.3-32h87.4L224,596.9z M375,548.9H-41
			v-32h416V548.9z M375,500.9H-41v-256h416v32H111c-1,0-1.9,0.2-2.8,0.6c-0.3,0.1-0.5,0.3-0.8,0.4c-0.6,0.3-1.1,0.7-1.6,1.1
			c-0.2,0.2-0.5,0.4-0.7,0.7c-0.4,0.5-0.8,1-1.1,1.6c-0.1,0.2-0.3,0.5-0.4,0.8c0,0.1-0.1,0.2-0.1,0.3c-0.3,0.8-0.4,1.7-0.4,2.6
			l0,0.1v176c0,4.4,3.6,8,8,8h264V500.9z M407,452.9H119V301.4l139,109.8c2.9,2.3,7,2.3,9.9,0l139-109.8V452.9z"/>
	</g>
</g>
<g>
	<g>
		<path class="st0" d="M79,284.9H-1c-4.4,0-8,3.6-8,8s3.6,8,8,8h80c4.4,0,8-3.6,8-8S83.4,284.9,79,284.9z"/>
	</g>
</g>
<g>
	<g>
		<path class="st0" d="M79,316.9H31c-4.4,0-8,3.6-8,8s3.6,8,8,8h48c4.4,0,8-3.6,8-8S83.4,316.9,79,316.9z"/>
	</g>
</g>
<g>
	<g>
		<path class="st0" d="M95,420.9c-13.3,0-24-10.7-24-24c0-4.4-3.6-8-8-8s-8,3.6-8,8c0,13.3-10.7,24-24,24c-4.4,0-8,3.6-8,8
			s3.6,8,8,8c13.3,0,24,10.7,24,24c0,4.4,3.6,8,8,8s8-3.6,8-8c0-13.3,10.7-24,24-24c4.4,0,8-3.6,8-8S99.4,420.9,95,420.9z M63,436.9
			c-2.3-3-5-5.7-8-8c3-2.3,5.7-5,8-8c2.3,3,5,5.7,8,8C68,431.2,65.3,433.9,63,436.9z"/>
	</g>
</g>
</svg>
