<?xml version="1.0" encoding="utf-8"?>
<!-- Generator: Adobe Illustrator 19.0.1, SVG Export Plug-In . SVG Version: 6.00 Build 0)  -->
<svg version="1.1" id="Слой_1" xmlns="http://www.w3.org/2000/svg" xmlns:xlink="http://www.w3.org/1999/xlink" x="0px" y="0px"
	 viewBox="0 0 51.4 53.2" style="enable-background:new 0 0 51.4 53.2;" xml:space="preserve">
<style type="text/css">
	.st0{fill:#243394;}
</style>
<path class="st0" d="M51,23.9h-3.1v-5.6c0-1.3-1.1-2.4-2.4-2.4h-2.9v-2.1l-0.4-0.4v0l-6.5-6.5L28.7,0H7.1v9.8H2.4
	C1.1,9.8,0,10.8,0,12.2v38.7h0c0,0.5,0.2,1,0.5,1.4c0.4,0.6,1.1,0.9,1.8,0.9H42c1,0,1.9-0.7,2.2-1.6l9.1-24.9v-0.2
	C53.2,25.1,52.3,23.9,51,23.9 M45.5,17.7c0.4,0,0.6,0.3,0.6,0.6v5.6h-3.6v-6.2H45.5z M29.3,3l10.3,10.3H29.3V3z M8.9,1.8h18.6v13.3
	h13.3v8.9H11.3c-0.1,0-0.3,0-0.4,0c-0.9,0.1-1.6,0.8-1.8,1.6l-0.3,0.7V1.8z M1.8,12.2c0-0.4,0.3-0.6,0.6-0.6h4.7v19.5L1.8,45.6V12.2
	z M42.5,51.1c-0.1,0.2-0.3,0.4-0.5,0.4H2.3c-0.2,0-0.3-0.1-0.4-0.2c-0.1-0.1-0.1-0.2-0.1-0.4l5.3-14.6v0l3.7-10.1l0-0.1
	c0.1-0.2,0.3-0.4,0.5-0.4H51c0.3,0,0.4,0.5,0.4,0.7L42.5,51.1z"/>
<path class="st0" d="M14.2,15.1h8.9c0.5,0,0.9-0.4,0.9-0.9c0-0.5-0.4-0.9-0.9-0.9h-8.9c-0.5,0-0.9,0.4-0.9,0.9
	C13.3,14.7,13.7,15.1,14.2,15.1"/>
<path class="st0" d="M14.2,8.9h8.9c0.5,0,0.9-0.4,0.9-0.9c0-0.5-0.4-0.9-0.9-0.9h-8.9c-0.5,0-0.9,0.4-0.9,0.9
	C13.3,8.5,13.7,8.9,14.2,8.9"/>
<path class="st0" d="M14.2,21.3h21.3c0.5,0,0.9-0.4,0.9-0.9c0-0.5-0.4-0.9-0.9-0.9H14.2c-0.5,0-0.9,0.4-0.9,0.9
	C13.3,20.9,13.7,21.3,14.2,21.3"/>
</svg>
