<?xml version="1.0" encoding="utf-8"?>
<!-- Generator: Adobe Illustrator 19.0.1, SVG Export Plug-In . SVG Version: 6.00 Build 0)  -->
<svg version="1.1" id="Слой_1" xmlns="http://www.w3.org/2000/svg" xmlns:xlink="http://www.w3.org/1999/xlink" x="0px" y="0px"
	 viewBox="0 0 58.7 57.8" style="enable-background:new 0 0 58.7 57.8;" xml:space="preserve">
<style type="text/css">
	.st0{fill:#243394;}
</style>
<path class="st0" d="M56.2,12.6l-1.4-0.4C54.4,12.1,54,12,53.6,12c-1.6,0-3,1.1-3.6,2.6L49.2,17v-1.9c0-0.3-0.2-0.5-0.4-0.7
	L34.3,0.3C34.1,0.1,33.8,0,33.6,0H5.1C4.5,0,4.2,0.4,4.2,0.9v2.8H0.9C0.4,3.6,0,4,0,4.5v53.3c0,0.5,0.4,0.9,0.9,0.9h43.3
	c0.5,0,0.9-0.4,0.9-0.9v-2.8h3.3c0.5,0,0.9-0.4,0.9-0.9v-12l2.5-3.4l0.1-0.3l6.7-21.3C59.2,15.3,58.1,13.3,56.2,12.6 M34.5,3
	l11.7,11.2H34.5V3z M43.3,57H1.8V5.4h2.4v48.8c0,0.5,0.4,0.9,0.9,0.9h38.2V57z M47.5,53.3H6V1.8h26.8v13.3c0,0.5,0.4,0.9,0.9,0.9
	h13.9v6.7l-4.2,13.2v0.3l0.2,11.3c0,0.4,0.3,0.7,0.6,0.8c0.4,0.1,0.8,0,1-0.4l2.4-3.2V53.3z M45.2,44.7L45,37.3l4.4,1.4L45.2,44.7z
	 M56.9,16.7l-6.4,20.4l-5.2-1.7l6.4-20.3c0.4-1,1.4-1.6,2.4-1.2l1.4,0.4C56.6,14.6,57.2,15.8,56.9,16.7"/>
<path class="st0" d="M12,16h12.8c0.5,0,0.9-0.4,0.9-0.9V6.1c0-0.5-0.4-0.9-0.9-0.9H12c-0.5,0-0.9,0.4-0.9,0.9v9.1
	C11.1,15.6,11.6,16,12,16 M12.9,6.9h11v7.3h-11V6.9z"/>
<path class="st0" d="M10.2,24.4h27.1c0.5,0,0.9-0.4,0.9-0.9c0-0.5-0.4-0.9-0.9-0.9H10.2c-0.5,0-0.9,0.4-0.9,0.9
	C9.3,24,9.7,24.4,10.2,24.4"/>
<path class="st0" d="M10.2,30.9h27.1c0.5,0,0.9-0.4,0.9-0.9c0-0.5-0.4-0.9-0.9-0.9H10.2c-0.5,0-0.9,0.4-0.9,0.9
	C9.3,30.5,9.7,30.9,10.2,30.9"/>
<path class="st0" d="M10.2,37.4h27.1c0.5,0,0.9-0.4,0.9-0.9c0-0.5-0.4-0.9-0.9-0.9H10.2c-0.5,0-0.9,0.4-0.9,0.9
	C9.3,37,9.7,37.4,10.2,37.4"/>
<path class="st0" d="M38.1,43c0-0.5-0.4-0.9-0.9-0.9h-27c-0.5,0-0.9,0.4-0.9,0.9c0,0.5,0.4,0.9,0.9,0.9h27.1
	C37.7,43.9,38.1,43.4,38.1,43"/>
<path class="st0" d="M41,48.6H27.6c-0.5,0-0.9,0.4-0.9,0.9c0,0.5,0.4,0.9,0.9,0.9h13.3c0.5,0,0.9-0.4,0.9-0.9
	C41.8,48.9,41.5,48.6,41,48.6"/>
</svg>
