<?xml version="1.0" encoding="utf-8"?>
<!-- Generator: Adobe Illustrator 19.0.1, SVG Export Plug-In . SVG Version: 6.00 Build 0)  -->
<svg version="1.1" id="Capa_1" xmlns="http://www.w3.org/2000/svg" xmlns:xlink="http://www.w3.org/1999/xlink" x="0px" y="0px"
	 viewBox="-57 180.9 480 480" style="enable-background:new -57 180.9 480 480;" xml:space="preserve">
<style type="text/css">
	.st0{fill:#273696;}
</style>
<g>
	<g>
		<path class="st0" d="M415,588.9h-8v-248c0-22.1-17.9-40-40-40h-56v-24c0-2.6-1.3-4.9-3.3-6.4l0-0.1l-120-88
			c-2.8-2.1-6.6-2.1-9.5,0l-120,88l0,0.1c-2,1.5-3.3,3.8-3.3,6.4v24H-1c-22.1,0-40,17.9-40,40v248h-8c-4.4,0-8,3.6-8,8v24
			c0,22.1,17.9,40,40,40h400c22.1,0,40-17.9,40-40v-24C423,592.5,419.4,588.9,415,588.9z M311,380.9c8.8,0,16,7.2,16,16
			s-7.2,16-16,16V380.9z M183,198.8l106,77.8l-26,17.4v-17c0-4.4-3.6-8-8-8H111c-4.4,0-8,3.6-8,8v17l-26-17.4L183,198.8z M247,284.9
			v19.7l-64,42.7l-64-42.7v-19.7H247z M71,291.8l107.6,71.7c2.7,1.8,6.2,1.8,8.9,0L295,291.8v121.1H71L71,291.8L71,291.8z M63,428.9
			h240h8c17.6,0,32-14.4,32-32c0-17.6-14.4-32-32-32v-16h48v208H7v-208h48v16c-17.6,0-32,14.4-32,32c0,17.6,14.4,32,32,32H63z
			 M55,380.9v32c-8.8,0-16-7.2-16-16S46.2,380.9,55,380.9z M-25,340.9c0-13.2,10.8-24,24-24h56v16H-1c-4.4,0-8,3.6-8,8v224
			c0,4.4,3.6,8,8,8h368c4.4,0,8-3.6,8-8v-224c0-4.4-3.6-8-8-8h-56v-16h56c13.2,0,24,10.8,24,24v248H231c-4.4,0-8,3.6-8,8
			c0,4.4-3.6,8-8,8h-64c-4.4,0-8-3.6-8-8c0-4.4-3.6-8-8-8H-25L-25,340.9L-25,340.9z M407,620.9c0,13.2-10.8,24-24,24H-17
			c-13.2,0-24-10.8-24-24v-16h169.4c3.3,9.3,12.2,16,22.6,16h64c10.4,0,19.3-6.7,22.6-16H407V620.9z"/>
	</g>
</g>
<g>
	<g>
		<rect x="175" y="444.9" class="st0" width="16" height="16"/>
	</g>
</g>
<g>
	<g>
		<rect x="175" y="476.9" class="st0" width="16" height="16"/>
	</g>
</g>
<g>
	<g>
		<rect x="143" y="476.9" class="st0" width="16" height="16"/>
	</g>
</g>
<g>
	<g>
		<rect x="207" y="476.9" class="st0" width="16" height="16"/>
	</g>
</g>
<g>
	<g>
		<rect x="175" y="508.9" class="st0" width="16" height="16"/>
	</g>
</g>
<g>
	<g>
		<rect x="143" y="508.9" class="st0" width="16" height="16"/>
	</g>
</g>
<g>
	<g>
		<rect x="111" y="508.9" class="st0" width="16" height="16"/>
	</g>
</g>
<g>
	<g>
		<rect x="207" y="508.9" class="st0" width="16" height="16"/>
	</g>
</g>
<g>
	<g>
		<rect x="239" y="508.9" class="st0" width="16" height="16"/>
	</g>
</g>
</svg>
