<?xml version="1.0" encoding="utf-8"?>
<!-- Generator: Adobe Illustrator 19.0.1, SVG Export Plug-In . SVG Version: 6.00 Build 0)  -->
<svg version="1.1" id="Слой_1" xmlns="http://www.w3.org/2000/svg" xmlns:xlink="http://www.w3.org/1999/xlink" x="0px" y="0px"
	 viewBox="0 0 187.4 213.3" style="enable-background:new 0 0 187.4 213.3;" xml:space="preserve">
<style type="text/css">
	.st0{fill:#49528A;}
</style>
<g>
	<path class="st0" d="M136.7,0c3.4,0.7,6.8,1.2,10.2,2c20.5,5.2,36.8,23.4,39.9,44.2c3.7,25.5-8.9,48.8-32.4,59.3
		c-11.9,5.3-24.2,6-36.8,2.5c-1-0.3-2-0.6-3.2-0.9c-0.3,4.5-0.5,8.8-1,13.1c-1.2,10.2-5.5,19-12.7,26.3c-1.7,1.7-2.2,6-0.9,8
		c1.5,2.4,3.1,4.8,4.8,7.1c0.5,0.7,1.5,1.2,2.3,1.5c8.4,2.4,16.8,4.6,25.3,6.9c9.9,2.7,15,9.3,15,19.5c0,3.2-0.2,6.4,0,9.6
		c0.5,6.9-1.9,11.9-8.7,14.2c-43.2,0-86.4,0-129.6,0c-0.8-0.3-1.5-0.6-2.3-0.9c-4-2-6.3-5.2-6.4-9.7c-0.1-5.1-0.1-10.1,0-15.2
		c0.2-8.3,5.4-14.8,13.8-17.2c8.6-2.5,17.2-4.8,25.9-7.1c1.5-0.4,2.6-1.1,3.4-2.5c1.2-2.1,2.7-4,4-6.1c0.5-0.8,0.7-1.8,0.8-2.7
		c0.4-2.7-0.6-4.7-2.6-6.7c-7.4-7.8-11.3-17.3-12-28.1c-0.7-10.2-1.1-20.5-2-30.7c-0.8-9.3,0.7-17.8,7.2-25
		c5.5-6.1,12.4-9.5,20.6-9.8c5.3-0.2,10.5-0.1,15.8-0.1c0.8,0,1.5,0,2,0c1.2-4.9,1.8-9.8,3.5-14.3C88,17.1,102.4,4.8,123.7,0.8
		c1.4-0.3,2.8-0.5,4.3-0.8C130.9,0,133.8,0,136.7,0z M135.9,102.8c22.4-0.6,43.4-20.5,44.4-44.3c-2.2,0-4.4,0-6.6,0
		c-2.6-0.1-4.1-1.4-4.1-3.5c0-2.1,1.6-3.3,4.2-3.4c2.2,0,4.4,0,6.6,0c-1.4-24.2-22-43.4-44.4-44.4c0,2.1,0,4.1,0,6.2
		c0,0.8,0,1.6-0.3,2.3c-0.6,1.6-1.9,2.4-3.6,2.2c-1.7-0.2-2.8-1.3-2.9-3.1c-0.1-2.5,0-5.1,0-7.6c-25,1.4-43.8,23-44.4,44.2
		c2.7,0.3,5.5,0.4,8.2,1c14.8,3.4,24,16.5,22.8,31.8c-0.4,4.8-0.7,9.6-0.9,14.3c0,0.5,0.3,1.3,0.7,1.5c4.3,1.7,8.7,2.8,13.2,2.9
		c0.2-0.3,0.3-0.4,0.3-0.5c0-2,0-4,0.1-6c0.1-2.7,1.4-4.3,3.5-4.2c2.1,0.1,3.3,1.6,3.3,4.2C135.9,98.5,135.9,100.6,135.9,102.8z
		 M98.1,88.9c-4.5,1.1-8.9,2.3-13.4,3.1c-11.2,2.2-22.5,2.8-33.9,3.3c-0.8,0-1.8,0.2-2.3,0.6c-5.1,5.3-8.2,11.6-8.3,19
		c-0.1,8.2,2.4,15.7,7.4,22.3c6.6,8.9,15.4,14,26.6,13.7c12.3-0.4,21.4-6.7,27.4-17.2C110.5,118.1,107.5,103.2,98.1,88.9z
		 M108.3,92.2c0.2-4.2,0.5-7.9,0.5-11.6c0-11.6-8.9-21.4-20.5-21.9c-9.9-0.4-19.9-0.5-29.8,0c-9.3,0.5-15.6,5.8-19.1,14.4
		C38,76.9,38,81,38.3,85c0.3,3.7,0.5,7.4,0.7,11.3c2.1-2.3,3.7-4.4,5.7-6.2c1-0.9,2.5-1.5,3.8-1.6c5.9-0.4,11.9-0.5,17.9-1
		c10.5-0.9,20.9-2.3,31-5.9c2.5-0.9,3.7-0.5,5.2,1.6C104.5,86,106.2,88.9,108.3,92.2z M63.2,187.9c-4.6,2.1-7.7,1.2-10.4-3
		c-2.3-3.4-4.5-6.8-6.8-10.2c-1.1-1.7-2-4.2-3.5-4.7c-1.6-0.6-3.9,0.6-5.9,1.2c-7,1.9-14,3.8-21,5.8c-4.6,1.3-7.8,4.2-8.2,8.9
		c-0.5,5.6-0.2,11.4-0.2,17c0,1.9,1.3,3.2,3.2,3.3c5.1,0.1,10.2,0,15.6,0c0-3.7,0-7.3,0-10.9c0-2.2,1.5-3.7,3.4-3.7
		c1.8,0,3.2,1.4,3.4,3.5c0.1,1.5,0,3,0.1,4.6c0,2.1,0,4.3,0,6.4c10.4,0,20.5,0,30.5,0c0.9-4.3,1.8-8.4,2.6-12.6
		c0.1-0.7,0.1-1.6-0.2-2.1C65,190.2,64.1,189.2,63.2,187.9z M121.2,206.3c5,0,9.7,0,14.4,0c3,0,4.4-1.5,4.4-4.6c0-4.3,0-8.6,0-12.9
		c0-6.3-3-10.3-9.1-12c-8.3-2.3-16.6-4.5-24.9-6.8c-1.3-0.4-2,0-2.7,1.1c-2.8,4.3-5.7,8.6-8.5,12.8c-3.5,5.2-5.4,5.9-11.3,4.1
		c-0.5,0.8-0.9,1.8-1.5,2.4c-1.1,1.1-1.2,2.1-0.9,3.5c0.8,3.4,1.5,6.9,2.1,10.4c0.3,1.5,0.9,2,2.5,2c8.8-0.1,17.6,0,26.4,0
		c0.6,0,1.2-0.1,2-0.1c0-1,0-1.9,0-2.8c0-2.7-0.1-5.4,0-8.1c0.1-1.8,1-3.4,2.9-3.5c1.2,0,2.5,0.8,3.5,1.7c0.6,0.5,0.5,1.8,0.6,2.8
		C121.3,199.5,121.2,202.8,121.2,206.3z M79,173c3,3.1,5.9,6,9,9c3.5-5.2,7-10.5,10.5-15.8c0.2-0.3,0.2-0.9,0-1.3
		c-1.1-1.7-2.3-3.4-3.5-5.3C89.4,164.2,84.2,168.6,79,173z M59.1,181.9c3.1-3.1,6-6,9-8.9c-5.2-4.3-10.5-8.7-15.9-13.3
		c-1.3,1.9-2.5,3.6-3.5,5.3c-0.2,0.3-0.1,1.1,0.2,1.5C52.2,171.7,55.7,176.8,59.1,181.9z M56.7,154.4c5.6,4.7,11.2,9.3,16.9,14
		c5.7-4.8,11.3-9.4,16.9-14C79.1,159.3,68,159.2,56.7,154.4z M73.5,177.4c-1,1.2-1.7,2.2-2.5,3c-1.4,1.5-2,3.6-0.8,5.2
		c0.8,1,2.2,2.1,3.4,2.1c1.2,0,2.9-1.1,3.3-2.1c0.5-1.2,0.4-3.1-0.2-4.4C76.2,179.9,74.8,178.9,73.5,177.4z M76.7,206.2
		c-0.7-3.6-1.4-7-2.1-10.4c-0.1-0.4-0.5-0.8-0.9-0.9c-0.3-0.1-1,0.3-1.1,0.5c-0.8,3.5-1.5,7.1-2.2,10.8
		C72.6,206.2,74.5,206.2,76.7,206.2z"/>
	<path class="st0" d="M151,51.6c2.3,0,4.6,0,6.9,0c2.4,0.1,3.9,1.5,3.8,3.5c0,1.9-1.5,3.3-3.8,3.3c-4.4,0.1-8.9,0.1-13.3,0
		c-1.2,0-1.9,0.3-2.6,1.5c-2.5,4.8-7.7,7-12.9,5.3c-1.2-0.4-1.9-0.3-2.7,0.6c-1.5,1.6-3,3.1-4.6,4.6c-1.7,1.6-3.8,1.7-5.2,0.2
		c-1.3-1.4-1.3-3.4,0.3-5c1.6-1.7,3.3-3.2,4.8-4.9c0.4-0.4,0.7-1.2,0.6-1.5c-0.2-0.4-0.9-0.7-1.5-0.7c-1.2-0.1-2.5,0-3.7-0.2
		c-1.9-0.2-2.8-1.5-2.8-3.3c0-1.8,1.1-3.4,2.8-3.3c3.6,0.4,5.5-1.3,7.6-4.1c2.6-3.5,6.7-4.3,10.9-2.9c1.3,0.4,2,0.2,2.9-0.7
		c5.4-5.4,10.8-10.8,16.2-16.2c0.6-0.6,1.2-1.2,1.9-1.6c1.4-0.8,2.9-0.6,4,0.6c1.1,1.1,1.4,2.6,0.6,4c-0.4,0.7-1,1.3-1.6,1.9
		c-5.4,5.4-10.8,10.8-16.2,16.2c-0.5,0.5-0.6,1.3-1,2c0.7,0.2,1.3,0.6,2,0.6C146.7,51.7,148.8,51.6,151,51.6z M132.5,58.9
		c2.1,0,3.8-1.6,3.9-3.7c0-2.2-1.7-4-3.9-3.9c-2.1,0-3.8,1.7-3.8,3.8C128.7,57.2,130.3,58.9,132.5,58.9z"/>
</g>
</svg>
