<?xml version="1.0" encoding="utf-8"?>
<!-- Generator: Adobe Illustrator 19.0.1, SVG Export Plug-In . SVG Version: 6.00 Build 0)  -->
<svg version="1.1" id="Layer_1" xmlns="http://www.w3.org/2000/svg" xmlns:xlink="http://www.w3.org/1999/xlink" x="0px" y="0px"
	 viewBox="-41 237.6 512 366.6" style="enable-background:new -41 237.6 512 366.6;" xml:space="preserve">
<style type="text/css">
	.st0{fill:#273696;}
</style>
<g>
	<g>
		<path class="st0" d="M437.3,348.7H259.8c-7.9-27.5-23.4-52.6-45.1-72c-32.9-29.5-75.4-43-119.7-38.1
			C23.9,246.4-33,303.8-40.2,374.9c-4,38.8,6.7,77.3,29.9,108.1c22.3,29.6,54.2,50.1,90.2,57.8l37.8,37.8c3.2,3.2,7.4,4.9,11.7,4.9
			c2.1,0,4.3-0.4,6.4-1.3c6.2-2.6,10.2-8.6,10.2-15.3v-26.5c6.2-1.4,12.3-3.2,18.2-5.3v1c0,18.6,15.1,33.7,33.7,33.7h56.5l30.1,30.1
			c2.7,2.7,6.3,4.1,9.9,4.1c1.8,0,3.6-0.4,5.4-1.1c5.3-2.2,8.7-7.3,8.7-13V570h128.8c18.6,0,33.7-15.1,33.7-33.7V382.4
			C471,363.8,455.9,348.7,437.3,348.7z M136.6,526.1c-3.8,0.7-6.6,4-6.6,7.9V567c0,0.2,0,0.4-0.3,0.5c-0.3,0.1-0.4,0-0.6-0.1
			l-39.5-39.5c-1.1-1.1-2.6-1.9-4.1-2.2c-33.1-6.6-62.5-25.1-82.9-52.2c-20.8-27.7-30.3-62.1-26.8-96.9c3.1-30.7,17-59.9,39.1-82.2
			C37,272,66,257.9,96.7,254.5c5.3-0.6,10.6-0.9,15.9-0.9c33.9,0,65.9,12.2,91.4,35c29.1,26,45.8,63.4,45.8,102.4
			C249.7,457.6,202.2,514.4,136.6,526.1z M455,536.3c0,9.7-7.9,17.6-17.6,17.6H300.5c-4.4,0-8,3.6-8,8v23.4l-29.1-29.1
			c-1.5-1.5-3.5-2.3-5.7-2.3h-59.9c-9.7,0-17.6-7.9-17.6-17.6v-7.8c51.3-25.2,85.5-77.9,85.5-137.5c0-8.9-0.8-17.6-2.3-26.2h173.8
			c9.7,0,17.6,7.9,17.6,17.6L455,536.3L455,536.3z"/>
	</g>
</g>
<g>
	<g>
		<path class="st0" d="M408.8,410.9c-3.1-3.1-8.2-3.1-11.3,0l-79.8,79.8l-37.1-37.1c-3.1-3.1-8.2-3.1-11.3,0
			c-3.1,3.1-3.1,8.2,0,11.3l42.7,42.7c1.6,1.6,3.6,2.3,5.7,2.3s4.1-0.8,5.7-2.3l85.5-85.5C411.9,419.1,411.9,414,408.8,410.9z"/>
	</g>
</g>
<g>
	<g>
		<path class="st0" d="M112.4,451.4C112.4,451.4,112.4,451.4,112.4,451.4c-4.4,0-8,3.6-8,8c0,0,0,0,0,0s0,0,0,0c0,4.4,3.6,8,8,8
			c0,0,0,0,0,0c4.4,0,8-3.6,8-8c0,0,0,0,0,0s0,0,0,0C120.4,454.9,116.8,451.4,112.4,451.4z"/>
	</g>
</g>
<g>
	<g>
		<path class="st0" d="M148.1,329.6c-9.7-9.7-22.4-15.1-35.7-15.1c-28,0-50.8,22.8-50.8,50.8c0,4.4,3.6,8,8,8c4.4,0,8-3.6,8-8
			c0-19.2,15.6-34.7,34.7-34.7c9,0,17.7,3.7,24.4,10.4c6.7,6.7,10.4,15.3,10.4,24.4c0,15.2-10.2,28.9-24.7,33.3
			c-10.8,3.2-18,12.9-18,24v2.6c0,4.4,3.6,8,8,8c4.4,0,8-3.6,8-8v-2.6c0-4,2.6-7.5,6.6-8.7c21.3-6.4,36.2-26.4,36.2-48.6
			C163.2,352,157.8,339.3,148.1,329.6z"/>
	</g>
</g>
</svg>
