<?xml version="1.0" encoding="utf-8"?>
<!-- Generator: Adobe Illustrator 19.0.1, SVG Export Plug-In . SVG Version: 6.00 Build 0)  -->
<svg version="1.1" id="Слой_1" xmlns="http://www.w3.org/2000/svg" xmlns:xlink="http://www.w3.org/1999/xlink" x="0px" y="0px"
	 viewBox="0 0 60.4 56" style="enable-background:new 0 0 60.4 56;" xml:space="preserve">
<style type="text/css">
	.st0{fill:#243394;}
</style>
<path class="st0" d="M59.5,40.7c-0.5,0-0.9,0.4-0.9,0.9c0,3.1-1.1,6-3,8.2c-0.5-1-1.4-1.8-2.5-2.2l-3.7-1.2v-0.6
	c1-0.9,1.7-2.3,1.7-3.8v-2.8h1c0.5,0,0.9-0.4,0.9-0.9c0-0.5-0.4-0.9-0.9-0.9h-0.3c-0.2-3.1-2.8-5.5-5.9-5.5c-3.1,0-5.7,2.4-5.9,5.5
	h-0.3c-0.5,0-0.9,0.4-0.9,0.9c0,0.5,0.4,0.9,0.9,0.9h1v2.8c0,1.5,0.6,2.8,1.6,3.7v0.8l-3.5,1.1c-1.1,0.3-2,1.1-2.5,2.2
	c-1.9-2.2-3-5.1-3-8.2c0-7,5.7-12.7,12.7-12.7c5.3,0,10.1,3.3,11.9,8.3c0.2,0.5,0.7,0.7,1.1,0.5c0.5-0.2,0.7-0.7,0.5-1.1
	c-2.1-5.7-7.5-9.5-13.6-9.5c-8,0-14.5,6.5-14.5,14.5c0,4.1,1.7,7.8,4.5,10.4c0,0,0,0.1,0.1,0.1c0.2,0.2,0.4,0.4,0.7,0.6
	c2.5,2.1,5.7,3.4,9.3,3.4c3.6,0,6.8-1.3,9.3-3.4c0.2-0.2,0.4-0.3,0.6-0.5c0,0,0.1-0.1,0.1-0.1c2.7-2.6,4.5-6.3,4.5-10.4
	C60.4,41.1,60,40.7,59.5,40.7 M41.8,37.4c0.2-2.1,2-3.7,4.1-3.7s3.9,1.6,4.1,3.7h-3.2v-1.8c0-0.5-0.4-0.9-0.9-0.9
	c-0.5,0-0.9,0.4-0.9,0.9v1.8H41.8z M45.9,45.3c-1.9,0-3.4-1.5-3.4-3.4v-2.8h6.8v2.8C49.3,43.8,47.8,45.3,45.9,45.3 M47.7,46.8V47
	c0,0.9-0.7,1.6-1.6,1.6h-0.4c-0.9,0-1.6-0.7-1.6-1.6v-0.2c0.6,0.2,1.2,0.3,1.8,0.3C46.5,47.1,47.1,47,47.7,46.8 M46,54.3
	c-3.2,0-6.1-1.2-8.3-3.1c0.3-0.9,0.9-1.6,1.7-1.8l3.3-1c0.5,1.2,1.7,2.1,3.1,2.1h0.4c1.4,0,2.6-0.9,3.1-2.1l3.4,1.1
	c0.8,0.3,1.4,1,1.7,1.8C52.1,53.1,49.2,54.3,46,54.3"/>
<path class="st0" d="M14.5,28.9c7,0,12.7,5.7,12.7,12.7c0,0.5,0.4,0.9,0.9,0.9c0.5,0,0.9-0.4,0.9-0.9c0-8-6.5-14.5-14.5-14.5
	C6.5,27.1,0,33.6,0,41.6c0,4.1,1.7,7.8,4.5,10.4c0,0,0,0.1,0.1,0.1c0.1,0.1,0.3,0.3,0.4,0.4c2.5,2.2,5.9,3.6,9.5,3.6
	c3.5,0,6.8-1.3,9.4-3.5c0.2-0.2,0.4-0.3,0.6-0.5c0,0,0.1-0.1,0.1-0.1c1.6-1.5,2.8-3.4,3.6-5.5c0.2-0.5-0.1-1-0.5-1.1
	c-0.5-0.2-1,0.1-1.1,0.5c-0.5,1.4-1.3,2.7-2.2,3.8c-0.5-1-1.4-1.8-2.5-2.2l-3.7-1.2v-0.6c1-0.9,1.7-2.3,1.7-3.8v-2.8h1
	c0.5,0,0.9-0.4,0.9-0.9c0-0.5-0.4-0.9-0.9-0.9h-0.3c-0.2-3.1-2.8-5.5-5.9-5.5c-3.1,0-5.7,2.4-5.9,5.5H8.3c-0.5,0-0.9,0.4-0.9,0.9
	c0,0.5,0.4,0.9,0.9,0.9h1v2.8c0,1.5,0.6,2.8,1.6,3.7v0.8l-3.5,1.1c-1.1,0.3-2,1.1-2.5,2.2c-1.9-2.2-3-5.1-3-8.2
	C1.8,34.6,7.5,28.9,14.5,28.9 M10.3,37.4c0.2-2.1,2-3.7,4.1-3.7c2.1,0,3.9,1.6,4.1,3.7h-3.3v-1.8c0-0.5-0.4-0.9-0.9-0.9
	s-0.9,0.4-0.9,0.9v1.8H10.3z M12.6,46.9L12.6,46.9c0.6,0.1,1.2,0.2,1.8,0.2c0.6,0,1.2-0.1,1.7-0.3V47c0,0.9-0.7,1.6-1.6,1.6h-0.4
	c-0.8,0-1.4-0.6-1.6-1.3C12.7,47.1,12.7,47,12.6,46.9 M14.4,45.3c-1.9,0-3.4-1.5-3.4-3.4v-2.8h6.8v2.8
	C17.9,43.8,16.3,45.3,14.4,45.3 M7.9,49.3l3.3-1c0.5,1.2,1.7,2.1,3.1,2.1h0.4c1.4,0,2.6-0.9,3.1-2.1l3.4,1.1c0.8,0.3,1.4,1,1.7,1.8
	c-2.3,2-5.2,3.1-8.3,3.1c-3.2,0-6.1-1.2-8.3-3.1C6.4,50.2,7.1,49.5,7.9,49.3"/>
<path class="st0" d="M30,0c-6.3,0-11.8,4-13.8,10c-0.2,0.5,0.1,1,0.6,1.1c0.5,0.2,1-0.1,1.1-0.6c1.7-5.2,6.6-8.8,12.1-8.8
	c7,0,12.7,5.7,12.7,12.7c0,3.1-1.1,6-3,8.2c-0.5-1-1.4-1.8-2.5-2.2l-3.7-1.2v-0.6c1-0.9,1.7-2.3,1.7-3.8v-2.8h1
	c0.5,0,0.9-0.4,0.9-0.9c0-0.5-0.4-0.9-0.9-0.9h-0.3c-0.2-3.1-2.8-5.5-5.9-5.5c-3.1,0-5.7,2.4-5.9,5.5h-0.3c-0.5,0-0.9,0.4-0.9,0.9
	c0,0.5,0.4,0.9,0.9,0.9h1v2.8c0,1.5,0.6,2.8,1.6,3.7v0.8l-3.5,1.1c-1.1,0.3-2,1.1-2.5,2.2c-1.9-2.2-3-5.1-3-8.2
	c0-0.5-0.4-0.9-0.9-0.9c-0.5,0-0.9,0.4-0.9,0.9c0,4.1,1.7,7.8,4.5,10.4c0,0,0,0.1,0.1,0.1c0.1,0.1,0.3,0.3,0.4,0.4
	c2.5,2.2,5.9,3.6,9.5,3.6c3.6,0,7-1.3,9.5-3.6c0.1-0.1,0.3-0.2,0.4-0.4c0,0,0.1-0.1,0.1-0.1c2.8-2.6,4.5-6.3,4.5-10.4
	C44.5,6.5,38,0,30,0 M25.9,10.3c0.2-2.1,2-3.7,4.1-3.7c2.1,0,3.9,1.6,4.1,3.7h-3.3V8.4c0-0.5-0.4-0.9-0.9-0.9
	c-0.5,0-0.9,0.4-0.9,0.9v1.8H25.9z M30,18.2c-1.9,0-3.4-1.5-3.4-3.4v-2.8h6.8v2.8C33.4,16.7,31.9,18.2,30,18.2 M31.7,19.7v0.1
	c0,0.9-0.7,1.6-1.6,1.6h-0.4c-0.9,0-1.6-0.7-1.6-1.6v-0.2c0.6,0.2,1.2,0.3,1.8,0.3C30.6,20,31.2,19.9,31.7,19.7 M30,27.2
	c-3.2,0-6.1-1.2-8.3-3.1c0.3-0.9,0.9-1.6,1.7-1.8l3.3-1c0.5,1.2,1.7,2.1,3.1,2.1h0.4c1.4,0,2.6-0.9,3.1-2.1l3.4,1.1
	c0.8,0.3,1.4,1,1.7,1.8C36.1,26,33.2,27.2,30,27.2"/>
</svg>
