<?xml version="1.0" encoding="utf-8"?>
<!-- Generator: Adobe Illustrator 19.0.1, SVG Export Plug-In . SVG Version: 6.00 Build 0)  -->
<svg version="1.1" id="Слой_1" xmlns="http://www.w3.org/2000/svg" xmlns:xlink="http://www.w3.org/1999/xlink" x="0px" y="0px"
	 viewBox="0 0 48 47.2" style="enable-background:new 0 0 48 47.2;" xml:space="preserve">
<style type="text/css">
	.st0{fill:#243394;}
</style>
<path class="st0" d="M1.6,5.6H0v41.6C0,47.7,0.3,48,0.8,48H28v-1.6H1.6V5.6z"/>
<path class="st0" d="M4.8,1.6h24.8V8c0,0.5,0.3,0.8,0.8,0.8h6.4v2.4h1.6V8c0-0.1,0-0.2-0.1-0.2V7.7c-0.1-0.1-0.1-0.2-0.2-0.2L31,0.2
	c-0.1-0.1-0.2-0.1-0.2-0.2h-0.1c-0.1,0-0.2-0.1-0.2-0.1H4C3.5,0,3.2,0.3,3.2,0.8V44c0,0.5,0.3,0.8,0.8,0.8h27.2v-1.6H4.8V1.6z
	 M35.7,7.2h-4.5V2.7L35.7,7.2z"/>
<rect x="18.4" y="21.6" class="st0" width="1.6" height="1.6"/>
<rect x="15.2" y="21.6" class="st0" width="1.6" height="1.6"/>
<rect x="12" y="21.6" class="st0" width="1.6" height="1.6"/>
<rect x="8.8" y="21.6" class="st0" width="1.6" height="1.6"/>
<rect x="21.6" y="21.6" class="st0" width="1.6" height="1.6"/>
<rect x="7.2" y="4" class="st0" width="1.6" height="1.6"/>
<rect x="10.4" y="4" class="st0" width="1.6" height="1.6"/>
<rect x="10.4" y="7.2" class="st0" width="1.6" height="1.6"/>
<rect x="7.2" y="7.2" class="st0" width="1.6" height="1.6"/>
<rect x="13.6" y="4" class="st0" width="6.4" height="1.6"/>
<rect x="13.6" y="7.2" class="st0" width="6.4" height="1.6"/>
<rect x="7.2" y="12.8" class="st0" width="20.8" height="1.6"/>
<rect x="7.2" y="16.8" class="st0" width="27.2" height="1.6"/>
<rect x="7.2" y="26.4" class="st0" width="27.2" height="1.6"/>
<rect x="7.2" y="30.4" class="st0" width="27.2" height="1.6"/>
<rect x="7.2" y="34.4" class="st0" width="17.6" height="1.6"/>
<rect x="26.4" y="34.4" class="st0" width="1.6" height="1.6"/>
<rect x="29.6" y="34.4" class="st0" width="1.6" height="1.6"/>
<rect x="32.8" y="34.4" class="st0" width="1.6" height="1.6"/>
<path class="st0" d="M44.8,26.4c-1.5,0-2.7,1-3.1,2.4h-3.3v-5.6h4.8c0.5,0,0.8-0.3,0.8-0.8V9.5c1.4-0.3,2.4-1.6,2.4-3.1
	c0-1.8-1.4-3.2-3.2-3.2c-1.8,0-3.2,1.4-3.2,3.2c0,1.5,1,2.7,2.4,3.1v12.1H24.8v1.6h12v15.3c-1.4,0.3-2.4,1.6-2.4,3.1
	c0,1.8,1.4,3.2,3.2,3.2c1.8,0,3.2-1.4,3.2-3.2c0-1.5-1-2.7-2.4-3.1v-8.1h3.3c0.3,1.4,1.6,2.4,3.1,2.4c1.8,0,3.2-1.4,3.2-3.2
	C48,27.8,46.6,26.4,44.8,26.4 M41.6,6.4c0-0.9,0.7-1.6,1.6-1.6s1.6,0.7,1.6,1.6c0,0.9-0.7,1.6-1.6,1.6S41.6,7.3,41.6,6.4 M39.2,41.6
	c0,0.9-0.7,1.6-1.6,1.6c-0.9,0-1.6-0.7-1.6-1.6c0-0.9,0.7-1.6,1.6-1.6C38.5,40,39.2,40.7,39.2,41.6 M44.8,31.2
	c-0.9,0-1.6-0.7-1.6-1.6c0-0.9,0.7-1.6,1.6-1.6c0.9,0,1.6,0.7,1.6,1.6C46.4,30.5,45.7,31.2,44.8,31.2"/>
<rect x="7.2" y="38.4" class="st0" width="9.6" height="1.6"/>
</svg>
