<?xml version="1.0" encoding="utf-8"?>
<!-- Generator: Adobe Illustrator 19.0.1, SVG Export Plug-In . SVG Version: 6.00 Build 0)  -->
<svg version="1.1" id="Слой_1" xmlns="http://www.w3.org/2000/svg" xmlns:xlink="http://www.w3.org/1999/xlink" x="0px" y="0px"
	 viewBox="0 0 65.5 62.4" style="enable-background:new 0 0 65.5 62.4;" xml:space="preserve">
<style type="text/css">
	.st0{fill:#243394;}
</style>
<path class="st0" d="M54.7,19.8L42.5,11c-0.5-0.3-1.1-0.2-1.4,0.2c-0.3,0.5-0.2,1.1,0.2,1.4l12.2,8.9c0.2,0.1,0.4,0.2,0.6,0.2
	c0.3,0,0.6-0.1,0.8-0.4C55.3,20.8,55.2,20.2,54.7,19.8"/>
<path class="st0" d="M24.7,15c-0.1-0.6-0.6-0.9-1.2-0.8L8.6,16.5c-0.6,0.1-0.9,0.6-0.8,1.2c0.1,0.5,0.5,0.9,1,0.9c0.1,0,0.1,0,0.2,0
	l14.9-2.4C24.4,16.1,24.7,15.5,24.7,15"/>
<path class="st0" d="M65,16.7L42.4,0.2C42.1,0,41.9,0,41.6,0c-0.3,0-0.5,0.2-0.7,0.4L31.1,14l-1.4-8.6c0-0.3-0.2-0.5-0.4-0.7
	c-0.2-0.2-0.5-0.2-0.8-0.2L0.9,9C0.3,9.1-0.1,9.6,0,10.2l5.4,34.1c0,0.3,0.2,0.5,0.4,0.7C6,45,6.2,45.1,6.4,45.1c0.1,0,0.1,0,0.2,0
	l6.4-1v10.8c0,0.6,0.5,1,1,1h28c0.6,0,1-0.5,1-1v-2.8c0.7-0.4,1.3-0.9,2-1.4l2.5,2.5L46.7,54c-0.4,0.4-0.4,1,0,1.4l9.1,9.1
	c0.2,0.2,0.5,0.3,0.7,0.3c0.3,0,0.5-0.1,0.7-0.3l3-3c0.2-0.2,0.3-0.4,0.3-0.7c0-0.3-0.1-0.5-0.3-0.7L51.1,51
	c-0.2-0.2-0.4-0.3-0.7-0.3c-0.3,0-0.5,0.1-0.7,0.3l-0.8,0.8l-2.5-2.5c2-2.3,3.1-5.3,3.1-8.4c0-0.3,0-0.7,0-1l15.8-21.8
	C65.6,17.6,65.5,17,65,16.7 M50.4,53.1l7.7,7.7l-1.6,1.6l-7.7-7.7L50.4,53.1z M12.9,20.4v4.1l-3,0.5c-0.6,0.1-0.9,0.6-0.8,1.2
	c0.1,0.5,0.5,0.9,1,0.9c0.1,0,0.1,0,0.2,0l2.7-0.4v6.7l-1.6,0.3c-0.6,0.1-0.9,0.6-0.8,1.2c0.1,0.5,0.5,0.9,1,0.9c0.1,0,0.1,0,0.2,0
	l1.3-0.2V42l-5.7,0.9L2.2,10.8l25.7-4.1l1.5,9.6l-2.2,3.1H13.9C13.4,19.4,12.9,19.9,12.9,20.4 M41,53.9H15V21.4h12.7h0h0h11.5h0h0
	H41v7.4c-1.4-0.5-2.9-0.8-4.4-0.8c-0.3,0-0.6,0-0.8,0c-0.1,0-0.2,0-0.2,0H20.4c-0.6,0-1,0.5-1,1c0,0.6,0.5,1,1,1h9.2
	c-1.1,0.7-2.1,1.6-2.9,2.6c-1,1.2-1.8,2.5-2.3,4h-4c-0.6,0-1,0.5-1,1c0,0.6,0.5,1,1,1h3.5c-0.1,0.7-0.2,1.5-0.2,2.2
	c0,1.5,0.3,3,0.8,4.4h-4.1c-0.6,0-1,0.5-1,1c0,0.6,0.5,1,1,1h5c2.3,4,6.5,6.5,11.2,6.5c1.5,0,3-0.3,4.4-0.8V53.9z M44.3,48.6
	L44.3,48.6c-0.8,0.8-1.7,1.5-2.7,2c-1.5,0.8-3.2,1.2-4.9,1.2c-4.1,0-7.8-2.3-9.7-5.9h0c-0.8-1.5-1.2-3.2-1.2-4.9c0-1,0.1-2,0.4-3
	c0.4-1.5,1.1-2.8,2.1-4c2.1-2.5,5.1-3.9,8.3-3.9c1.7,0,3.4,0.4,4.9,1.2c3.3,1.7,5.5,4.8,5.9,8.5v0c0,0.4,0.1,0.8,0.1,1.2
	C47.4,43.8,46.3,46.5,44.3,48.6 M48.9,37.2c-0.9-3.1-3-5.8-5.9-7.4v-5.3l5.5,4c0.2,0.1,0.4,0.2,0.6,0.2c0.3,0,0.6-0.1,0.8-0.4
	c0.3-0.5,0.2-1.1-0.2-1.4L43,22v-1.6c0-0.6-0.5-1-1-1h-2.5l-2-1.5c-0.5-0.3-1.1-0.2-1.4,0.2c-0.3,0.4-0.2,0.9,0,1.2h-6.4l1.6-2.2
	L42,2.4l21,15.3L48.9,37.2z"/>
<path class="st0" d="M36.6,32.3c-4.7,0-8.6,3.8-8.6,8.6c0,4.7,3.8,8.6,8.6,8.6c4.7,0,8.6-3.8,8.6-8.6C45.1,36.2,41.3,32.3,36.6,32.3
	 M36.6,47.4c-3.6,0-6.5-2.9-6.5-6.5c0-3.6,2.9-6.5,6.5-6.5c3.6,0,6.5,2.9,6.5,6.5C43.1,44.5,40.2,47.4,36.6,47.4"/>
<path class="st0" d="M39.5,40.7c-0.4-0.4-1-0.4-1.4,0l-2.7,2.7c-0.4,0.4-0.4,1,0,1.4c0.2,0.2,0.5,0.3,0.7,0.3c0.3,0,0.5-0.1,0.7-0.3
	l2.7-2.7C39.9,41.8,39.9,41.1,39.5,40.7"/>
<path class="st0" d="M38.4,36.4c-0.4-0.4-1-0.4-1.4,0l-3,3c-0.4,0.4-0.4,1,0,1.4c0.2,0.2,0.5,0.3,0.7,0.3c0.3,0,0.5-0.1,0.7-0.3l3-3
	C38.8,37.4,38.8,36.8,38.4,36.4"/>
</svg>
