<?xml version="1.0" encoding="utf-8"?>
<!-- Generator: Adobe Illustrator 19.0.1, SVG Export Plug-In . SVG Version: 6.00 Build 0)  -->
<svg version="1.1" id="Слой_1" xmlns="http://www.w3.org/2000/svg" xmlns:xlink="http://www.w3.org/1999/xlink" x="0px" y="0px"
	 viewBox="0 0 44.7 45.4" style="enable-background:new 0 0 44.7 45.4;" xml:space="preserve">
<style type="text/css">
	.st0{fill:#243394;}
</style>
<path class="st0" d="M45.6,19L45.6,19L45.6,19C45.6,19,45.6,19,45.6,19c0-0.1,0-0.1,0-0.1c0,0,0,0,0,0c0,0,0,0,0,0c0,0,0,0,0,0
	c0,0,0,0,0,0c0,0,0,0,0,0l0,0c0,0,0,0,0,0c0,0,0,0,0,0c0,0,0,0,0,0l0,0c0,0,0,0,0,0c0,0,0,0,0,0c0,0,0,0,0,0c0,0,0,0,0,0
	c0,0,0,0,0,0c0,0,0,0,0,0c0,0,0,0,0,0c0,0,0,0,0,0c0,0,0,0,0,0c0,0,0,0,0,0c0,0,0,0,0,0c0,0,0,0,0,0c0,0,0,0,0,0c0,0,0,0,0,0
	c0,0,0,0,0,0c0,0,0,0,0,0c0,0,0,0,0,0c0,0,0,0,0,0c0,0,0,0,0,0l-7.7-4.5V0.9c0-0.5-0.4-0.9-0.9-0.9H9C8.5,0,8.1,0.4,8.1,0.9v12.9
	l-7.7,4.5c0,0,0,0,0,0c0,0,0,0,0,0c0,0,0,0,0,0c0,0,0,0,0,0c0,0,0,0,0,0c0,0,0,0,0,0c0,0,0,0,0,0c0,0,0,0,0,0l0,0c0,0,0,0,0,0
	c0,0,0,0,0,0c0,0,0,0,0,0c0,0,0,0,0,0l0,0c0,0,0,0,0,0c0,0,0,0,0,0c0,0,0,0,0,0c0,0,0,0,0,0c0,0,0,0,0,0c0,0,0,0,0,0c0,0,0,0,0,0
	c0,0,0,0,0,0c0,0,0,0,0,0c0,0,0,0,0,0c0,0,0,0,0,0c0,0,0,0,0,0c0,0,0,0,0,0c0,0,0,0,0,0c0,0,0,0,0,0c0,0,0,0,0,0c0,0,0,0,0,0l0,0
	c0,0,0,0,0,0v0v25.4c0,0.5,0.4,0.9,0.9,0.9h43.8c0.5,0,0.9-0.4,0.9-0.9L45.6,19L45.6,19L45.6,19z M37.5,15.9l5.5,3.2l-5.5,3.2V15.9z
	 M9.9,1.8h25.7v21.5l-12.9,7.5L9.9,23.3V1.8z M8.1,15.9v6.3l-5.5-3.2L8.1,15.9z M43.8,43.6h-42v-23l20.6,11.9
	c0.1,0.1,0.3,0.1,0.4,0.1c0.2,0,0.3,0,0.5-0.1l20.6-11.9V43.6z"/>
<path class="st0" d="M31.6,7.7H14c-0.5,0-0.9,0.4-0.9,0.9s0.4,0.9,0.9,0.9h17.6c0.5,0,0.9-0.4,0.9-0.9S32.1,7.7,31.6,7.7"/>
<path class="st0" d="M31.6,12.3H14c-0.5,0-0.9,0.4-0.9,0.9c0,0.5,0.4,0.9,0.9,0.9h17.6c0.5,0,0.9-0.4,0.9-0.9
	C32.5,12.7,32.1,12.3,31.6,12.3"/>
<path class="st0" d="M31.6,17H14c-0.5,0-0.9,0.4-0.9,0.9c0,0.5,0.4,0.9,0.9,0.9h17.6c0.5,0,0.9-0.4,0.9-0.9
	C32.5,17.4,32.1,17,31.6,17"/>
<path class="st0" d="M22.8,21.7H14c-0.5,0-0.9,0.4-0.9,0.9c0,0.5,0.4,0.9,0.9,0.9h8.8c0.5,0,0.9-0.4,0.9-0.9
	C23.7,22.1,23.3,21.7,22.8,21.7"/>
<path class="st0" d="M37,40.5h-7.4c-1.2,0-1.2,1.8,0,1.8H37C38.1,42.3,38.1,40.5,37,40.5"/>
<path class="st0" d="M40.3,40.3c-1.2,0-1.2,1.8,0,1.8C41.5,42.1,41.5,40.3,40.3,40.3"/>
</svg>
