<?xml version="1.0" encoding="utf-8"?>
<!-- Generator: Adobe Illustrator 19.0.1, SVG Export Plug-In . SVG Version: 6.00 Build 0)  -->
<svg version="1.1" id="Слой_1" xmlns="http://www.w3.org/2000/svg" xmlns:xlink="http://www.w3.org/1999/xlink" x="0px" y="0px"
	 viewBox="0 0 53.3 50.3" style="enable-background:new 0 0 53.3 50.3;" xml:space="preserve">
<style type="text/css">
	.st0{fill:#243394;}
</style>
<path class="st0" d="M9.7,27.6c3.3,0,6-2.7,6-6c0-3.3-2.7-6-6-6c-3.3,0-6,2.7-6,6C3.6,24.9,6.3,27.6,9.7,27.6 M9.7,17.4
	c2.3,0,4.2,1.9,4.2,4.2c0,2.3-1.9,4.2-4.2,4.2c-2.3,0-4.2-1.9-4.2-4.2C5.5,19.3,7.3,17.4,9.7,17.4"/>
<path class="st0" d="M4.5,46.2h10.2c0.5,0,0.9-0.4,0.9-0.9V41c0-0.5-0.4-0.9-0.9-0.9H4.5c-0.5,0-0.9,0.4-0.9,0.9v4.3
	C3.6,45.8,4,46.2,4.5,46.2 M5.5,41.9h8.4v2.5H5.5V41.9z"/>
<path class="st0" d="M27.1,27.6c3.3,0,6-2.7,6-6c0-3.3-2.7-6-6-6c-3.3,0-6,2.7-6,6C21.1,24.9,23.8,27.6,27.1,27.6 M27.1,17.4
	c2.3,0,4.2,1.9,4.2,4.2c0,2.3-1.9,4.2-4.2,4.2c-2.3,0-4.2-1.9-4.2-4.2C22.9,19.3,24.8,17.4,27.1,17.4"/>
<path class="st0" d="M22,46.2h10.2c0.5,0,0.9-0.4,0.9-0.9V41c0-0.5-0.4-0.9-0.9-0.9H22c-0.5,0-0.9,0.4-0.9,0.9v4.3
	C21.1,45.8,21.5,46.2,22,46.2 M22.9,41.9h8.4v2.5h-8.4V41.9z"/>
<path class="st0" d="M54.2,10.1C54.2,10.1,54.2,10.1,54.2,10.1c0-0.1,0-0.1,0-0.1c0,0,0,0,0,0c0,0,0-0.1,0-0.1c0,0,0,0,0,0
	c0,0,0-0.1-0.1-0.1c0,0,0,0,0,0c0,0,0-0.1-0.1-0.1l-7.7-9.3C46.2,0.1,45.9,0,45.6,0h-37C8.3,0,8.1,0.1,7.9,0.3L0.2,9.7
	c0,0,0,0.1-0.1,0.1c0,0,0,0,0,0c0,0,0,0.1-0.1,0.1c0,0,0,0,0,0c0,0,0,0.1,0,0.1c0,0,0,0,0,0c0,0,0,0.1,0,0.1c0,0,0,0,0,0
	c0,0,0,0.1,0,0.1v39.1c0,0.5,0.4,0.9,0.9,0.9h52.4c0.5,0,0.9-0.4,0.9-0.9V10.2C54.3,10.2,54.3,10.2,54.2,10.1 M21.7,1.8h11l2.1,7.5
	H19.6L21.7,1.8z M17.5,48.5H1.8V11.1h15.7V48.5z M17.7,9.3H2.8L9,1.8h10.7L17.7,9.3z M35,48.5H19.3V11.1H35V48.5z M34.5,1.8h10.7
	l6.2,7.5H36.6L34.5,1.8z M52.4,48.5H36.8V11.1h15.7V48.5z"/>
<path class="st0" d="M44.6,27.6c3.3,0,6-2.7,6-6c0-3.3-2.7-6-6-6c-3.3,0-6,2.7-6,6C38.6,24.9,41.3,27.6,44.6,27.6 M44.6,17.4
	c2.3,0,4.2,1.9,4.2,4.2c0,2.3-1.9,4.2-4.2,4.2c-2.3,0-4.2-1.9-4.2-4.2C40.4,19.3,42.3,17.4,44.6,17.4"/>
<path class="st0" d="M39.5,46.2h10.2c0.5,0,0.9-0.4,0.9-0.9V41c0-0.5-0.4-0.9-0.9-0.9H39.5c-0.5,0-0.9,0.4-0.9,0.9v4.3
	C38.6,45.8,39,46.2,39.5,46.2 M40.4,41.9h8.4v2.5h-8.4V41.9z"/>
</svg>
