<?xml version="1.0" encoding="utf-8"?>
<!-- Generator: Adobe Illustrator 19.0.1, SVG Export Plug-In . SVG Version: 6.00 Build 0)  -->
<svg version="1.1" id="Capa_1" xmlns="http://www.w3.org/2000/svg" xmlns:xlink="http://www.w3.org/1999/xlink" x="0px" y="0px"
	 viewBox="-66 189.9 463 463" style="enable-background:new -66 189.9 463 463;" xml:space="preserve">
<style type="text/css">
	.st0{fill:#273696;}
</style>
<g>
	<path class="st0" d="M332.9,523.5l-76.7-19.2c-0.7-6.7-4.3-13-10.3-17l-11.4-7.6c25.9-24.8,42.5-63.3,42.5-106.3
		c0-6.3-0.7-13.4-2.2-21c1.4-2.4,2.2-5.1,2.2-8v-27.1c0-0.8-0.1-1.6-0.4-2.3c1.4-1.1,2.6-2.4,3.6-3.9c2.4-3.8,3.1-8.5,1.8-12.8
		l-18.7-61.4H310v130.2c-9.3,3.1-16,11.9-16,22.3v48c0,4.1,3.4,7.5,7.5,7.5h32c4.1,0,7.5-3.4,7.5-7.5v-48c0-10.3-6.7-19.1-16-22.3
		V236.9h16.5c4.1,0,7.5-3.4,7.5-7.5s-3.4-7.5-7.5-7.5H187.4c1-2.6,1.6-5.5,1.6-8.5c0-13-10.5-23.5-23.5-23.5S142,200.4,142,213.4
		c0,3,0.6,5.9,1.6,8.5H-10.5c-4.1,0-7.5,3.4-7.5,7.5s3.4,7.5,7.5,7.5h78.2L49,298.3c-1.3,4.3-0.6,9,1.8,12.8c1,1.5,2.2,2.8,3.6,3.9
		c-0.2,0.7-0.4,1.5-0.4,2.3v27.1c0,2.4,0.5,4.6,1.5,6.7c-1,7.3-1.5,14.8-1.5,22.3c0,43.1,16.6,81.5,42.5,106.3l-11.4,7.6
		c-6,4-9.6,10.3-10.3,17l-76.7,19.2c-28.3,7.1-48.1,32.4-48.1,61.6v44.3c0,13,10.5,23.5,23.5,23.5h384c13,0,23.5-10.5,23.5-23.5
		v-44.3C381,555.9,361.2,530.6,332.9,523.5z M326,429.9h-17v-40.5c0-4.7,3.8-8.5,8.5-8.5s8.5,3.8,8.5,8.5V429.9z M77.9,519
		c5.6,11.2,13.6,27.1,20.2,40.5l11.6,23.3c1.5,3,2.7,5.4,6.4,6c0.4,0.1,0.8,0.1,1.3,0.1c2,0,3.9-0.8,5.3-2.2
		c6.7-6.7,13.3-12,19.2-16.2v2.8c0,5.5,2.9,10.4,7.3,13.1l-3.2,25.4c-42.7-8.7-75.3-45.8-77-90.7L77.9,519z M165.5,557.4
		c1.9,0.7,4.8,2,8.5,4v12.1c0,0.3-0.2,0.5-0.5,0.5h-16c-0.3,0-0.5-0.2-0.5-0.5v-12.1C160.7,559.4,163.7,558.1,165.5,557.4z
		 M164.1,588.9h2.8l3.1,24.9c-1.5,0.1-3,0.1-4.5,0.1s-3,0-4.5-0.1L164.1,588.9z M184.9,611.9l-3.2-25.4c4.4-2.7,7.3-7.6,7.3-13.1
		v-2.8c5.9,4.2,12.5,9.5,19.2,16.2c1.4,1.4,3.3,2.2,5.3,2.2c0.4,0,0.8,0,1.3-0.1c3.7-0.6,4.9-3,6.4-6l11.6-23.3
		c6.7-13.4,14.6-29.3,20.2-40.5l8.8,2.2C260.2,566.1,227.6,603.2,184.9,611.9z M240.5,510.7c-13.9,27.9-23.9,47.8-29.2,58.4
		c-12.9-11.3-24.6-18.3-32.6-22.2l51.8-51.8l7.1,4.8C241.1,502.2,242.4,506.8,240.5,510.7z M261.5,373.9H237v-8.5
		c0-4.1-3.4-7.5-7.5-7.5h-48c-4.1,0-7.5,3.4-7.5,7.5v2.1c-2.6-1-5.5-1.6-8.5-1.6s-5.9,0.6-8.5,1.6v-2.1c0-4.1-3.4-7.5-7.5-7.5h-48
		c-4.1,0-7.5,3.4-7.5,7.5v8.5H69.5c-0.2,0-0.3,0-0.5,0c0-0.2,0-0.3,0-0.5c0-4.5,0.2-9,0.6-13.4c2.3,0,4.6-0.6,6.8-1.6l20.4-10.2
		c1.2-0.6,2.2-1.5,2.9-2.5l13.4-20.1l51.3,7.3c0.4,0,0.7,0.1,1.1,0.1s0.7,0,1.1-0.1l51.3-7.3l13.4,20.1c0.7,1.1,1.7,2,2.9,2.5
		l20.4,10.2c2,1,4.2,1.5,6.3,1.6c0.7,4.9,1.1,9.4,1.1,13.5c0,0.2,0,0.4,0,0.5C261.8,373.9,261.7,373.9,261.5,373.9z M96.7,323.1
		l-8.3,12.4l-18.6,9.3c-0.1,0-0.2,0.1-0.4,0c-0.1-0.2-0.2-0.3-0.4-0.4c0,0,0,0,0,0v-25.3L96.7,323.1z M262,344.4
		c0,0.1,0,0.3-0.2,0.4c-0.2,0.1-0.4,0.1-0.5,0l-18.6-9.3l-8.3-12.4l27.7-4V344.4z M157,213.4c0-4.7,3.8-8.5,8.5-8.5s8.5,3.8,8.5,8.5
		s-3.8,8.5-8.5,8.5S157,218.1,157,213.4z M63.3,302.7l20-65.8h164.3l20,65.8c0,0.1,0.1,0.2-0.1,0.4c-0.1,0.2-0.3,0.2-0.4,0.2
		l-101.7,14.5L63.8,303.3c-0.1,0-0.2,0-0.4-0.2C63.3,302.9,63.3,302.7,63.3,302.7z M69.8,388.9H94v0.5c0,4.1,3.4,7.5,7.5,7.5
		s7.5-3.4,7.5-7.5v-16.5h9v8.5c0,4.1,3.4,7.5,7.5,7.5s7.5-3.4,7.5-7.5v-8.5h9v16.5c0,4.1,3.4,7.5,7.5,7.5s7.5-3.4,7.5-7.5
		c0-4.7,3.8-8.5,8.5-8.5s8.5,3.8,8.5,8.5c0,4.1,3.4,7.5,7.5,7.5s7.5-3.4,7.5-7.5v-16.5h9v8.5c0,4.1,3.4,7.5,7.5,7.5s7.5-3.4,7.5-7.5
		v-8.5h9v16.5c0,4.1,3.4,7.5,7.5,7.5s7.5-3.4,7.5-7.5v-0.5h24.2c-6.1,59.1-46.7,105-95.7,105S75.9,448,69.8,388.9z M165.5,508.9
		c13.3,0,26.1-2.9,38-8.1l-38,38l-38-38C139.4,506,152.2,508.9,165.5,508.9z M93.4,499.8l7.1-4.8l51.8,51.8
		c-8,4-19.8,10.9-32.6,22.2c-5.3-10.6-15.3-30.5-29.2-58.4C88.6,506.8,89.9,502.2,93.4,499.8z M366,629.4c0,4.7-3.8,8.5-8.5,8.5H309
		v-24.5c0-4.1-3.4-7.5-7.5-7.5s-7.5,3.4-7.5,7.5v24.5H37v-24.5c0-4.1-3.4-7.5-7.5-7.5s-7.5,3.4-7.5,7.5v24.5h-48.5
		c-4.7,0-8.5-3.8-8.5-8.5v-44.3c0-22.3,15.1-41.6,36.7-47.1l52.5-13.1c3.9,58,52.3,104,111.2,104s107.3-46,111.2-104l52.5,13.1
		c21.6,5.4,36.7,24.8,36.7,47.1L366,629.4L366,629.4z"/>
	<path class="st0" d="M149.5,452.9h32c4.1,0,7.5-3.4,7.5-7.5s-3.4-7.5-7.5-7.5h-32c-4.1,0-7.5,3.4-7.5,7.5S145.4,452.9,149.5,452.9z
		"/>
</g>
</svg>
