<?xml version="1.0" encoding="utf-8"?>
<!-- Generator: Adobe Illustrator 19.0.1, SVG Export Plug-In . SVG Version: 6.00 Build 0)  -->
<svg version="1.1" id="Capa_1" xmlns="http://www.w3.org/2000/svg" xmlns:xlink="http://www.w3.org/1999/xlink" x="0px" y="0px"
	 viewBox="-271 394.9 52 52" style="enable-background:new -271 394.9 52 52;" xml:space="preserve">
<style type="text/css">
	.st0{fill:#4CB301;}
</style>
<g>
	<path class="st0" d="M-245,394.9c-14.3,0-26,11.7-26,26c0,14.3,11.7,26,26,26s26-11.7,26-26C-219,406.6-230.7,394.9-245,394.9z
		 M-245,444.9c-13.2,0-24-10.8-24-24s10.8-24,24-24s24,10.8,24,24S-231.8,444.9-245,444.9z"/>
	<path class="st0" d="M-232.7,410.2l-15.4,17.3l-9.3-7.4c-0.4-0.3-1.1-0.3-1.4,0.2c-0.3,0.4-0.3,1.1,0.2,1.4l10,8
		c0.2,0.1,0.4,0.2,0.6,0.2c0.3,0,0.6-0.1,0.7-0.3l16-18c0.4-0.4,0.3-1-0.1-1.4C-231.7,409.8-232.4,409.8-232.7,410.2z"/>
</g>
</svg>
