<?xml version="1.0" encoding="utf-8"?>
<!-- Generator: Adobe Illustrator 19.0.1, SVG Export Plug-In . SVG Version: 6.00 Build 0)  -->
<svg version="1.1" id="Слой_1" xmlns="http://www.w3.org/2000/svg" xmlns:xlink="http://www.w3.org/1999/xlink" x="0px" y="0px"
	 viewBox="0 0 56 54.6" style="enable-background:new 0 0 56 54.6;" xml:space="preserve">
<style type="text/css">
	.st0{fill:#243394;}
</style>
<path class="st0" d="M53,6.2h-7.7c-0.5,0-0.8,0.4-0.8,0.8c0,0.5,0.4,0.8,0.8,0.8H53c0.8,0,1.4,0.6,1.4,1.4v23.3H1.7V9.3
	c0-0.8,0.6-1.4,1.4-1.4h9.9c0,0.2-0.1,0.4-0.1,0.6c0,1.1,0.7,2.1,1.7,2.4v9.9c-1,0.3-1.7,1.3-1.7,2.4c0,1.4,1.1,2.6,2.6,2.6
	c0.7,0,1.3-0.3,1.8-0.7l8.2,4c0,1.4,1.2,2.5,2.6,2.5c1.4,0,2.5-1.1,2.6-2.5l8.2-4c0.5,0.4,1.1,0.7,1.8,0.7c1.4,0,2.6-1.1,2.6-2.6
	c0-1.1-0.7-2.1-1.7-2.4v-9.9c1-0.3,1.7-1.3,1.7-2.4c0-1.4-1.1-2.6-2.6-2.6c-0.7,0-1.4,0.3-1.8,0.8l-8.2-3.9c0-0.1,0-0.2,0-0.3
	C30.5,1.1,29.4,0,28,0c-1.4,0-2.6,1.1-2.6,2.6c0,0.1,0,0.2,0,0.3l-8.2,3.9c-0.5-0.5-1.1-0.8-1.8-0.8c-0.4,0-0.9,0.1-1.2,0.3H3.1
	C1.4,6.2,0,7.6,0,9.3v32.9c0,1.7,1.4,3.1,3.1,3.1h3.3c0.5,0,0.8-0.4,0.8-0.8c0-0.5-0.4-0.8-0.8-0.8H3.1c-0.8,0-1.4-0.6-1.4-1.4v-7.9
	h52.7v7.9c0,0.8-0.6,1.4-1.4,1.4H10.2c-0.5,0-0.8,0.4-0.8,0.8c0,0.5,0.4,0.8,0.8,0.8h10.7V50c-2.1,0-3.7,1.7-3.7,3.8
	c0,0.5,0.4,0.8,0.8,0.8h20c0.5,0,0.8-0.4,0.8-0.8c0-2.1-1.7-3.7-3.7-3.8v-4.7H53c1.7,0,3.1-1.4,3.1-3.1V9.3C56,7.6,54.7,6.2,53,6.2
	 M15.4,24.1c-0.5,0-0.9-0.4-0.9-0.9c0-0.5,0.4-0.9,0.9-0.9c0.5,0,0.9,0.4,0.9,0.9C16.3,23.8,15.9,24.1,15.4,24.1 M28,30
	c-0.5,0-0.9-0.4-0.9-0.9s0.4-0.9,0.9-0.9s0.9,0.4,0.9,0.9S28.5,30,28,30 M27.1,14.7c0-0.1,0-0.2,0-0.3c0,0,0-0.1,0.1-0.1
	c0,0,0-0.1,0-0.1c0.2-0.2,0.4-0.4,0.7-0.4c0.5,0,0.9,0.4,0.9,0.9c0,0.5-0.4,0.9-0.9,0.9S27.1,15.1,27.1,14.7 M41.4,23.3
	c0,0.5-0.4,0.9-0.9,0.9s-0.9-0.4-0.9-0.9c0-0.5,0.4-0.9,0.9-0.9S41.4,22.8,41.4,23.3 M40.5,7.6c0.5,0,0.9,0.4,0.9,0.9
	c0,0.5-0.4,0.9-0.9,0.9c-0.3,0-0.6-0.2-0.7-0.4c0,0,0-0.1,0-0.1c0,0,0-0.1-0.1-0.1c0-0.1,0-0.2,0-0.3C39.6,8,40,7.6,40.5,7.6
	 M38.7,10.3c0.3,0.3,0.6,0.5,1,0.6v9.9c-1,0.3-1.7,1.3-1.7,2.4c0,0.1,0,0.2,0,0.3l-8,3.9c-0.3-0.4-0.7-0.7-1.2-0.8v-9.6
	c1-0.3,1.7-1.3,1.7-2.4c0-0.1,0-0.2,0-0.3L38.7,10.3z M28,1.7c0.5,0,0.9,0.4,0.9,0.9c0,0.5-0.4,0.9-0.9,0.9S27.1,3,27.1,2.6
	C27.1,2.1,27.5,1.7,28,1.7 M18,8.2l8.2-3.9c0.5,0.5,1.1,0.8,1.8,0.8c0.7,0,1.4-0.3,1.8-0.8l4,1.9h-9.2c-0.5,0-0.8,0.4-0.8,0.8
	c0,0.5,0.4,0.8,0.8,0.8h12.8L38,8.2c0,0.1,0,0.2,0,0.3c0,0.1,0,0.2,0,0.3l-8.2,4c-0.5-0.5-1.1-0.7-1.8-0.7c-0.7,0-1.3,0.3-1.8,0.7
	l-8.2-4c0-0.1,0-0.2,0-0.3C18,8.4,18,8.3,18,8.2 M25.4,14.3c0,0.1,0,0.2,0,0.3c0,1.1,0.7,2.1,1.7,2.4v9.6c-0.5,0.2-0.9,0.5-1.2,0.8
	l-8-3.9c0-0.1,0-0.2,0-0.3c0-1.1-0.7-2.1-1.7-2.4v-9.9c0.4-0.1,0.7-0.3,1-0.6L25.4,14.3z M15.4,7.6c0.5,0,0.9,0.4,0.9,0.9
	c0,0.5-0.4,0.9-0.9,0.9c-0.5,0-0.9-0.4-0.9-0.9C14.6,8,14.9,7.6,15.4,7.6 M22.6,45.3h10.9V50H22.6V45.3z M37,52.9H19
	c0.3-0.7,1-1.2,1.9-1.2h14.2C36,51.7,36.7,52.2,37,52.9"/>
<path class="st0" d="M28,36.1c-1.4,0-2.6,1.1-2.6,2.6c0,1.4,1.1,2.6,2.6,2.6c1.4,0,2.6-1.1,2.6-2.6C30.6,37.3,29.4,36.1,28,36.1
	 M28,39.6c-0.5,0-0.9-0.4-0.9-0.9c0-0.5,0.4-0.9,0.9-0.9c0.5,0,0.9,0.4,0.9,0.9C28.9,39.2,28.5,39.6,28,39.6"/>
</svg>
